<?xml version="1.0" encoding="UTF-8"?><svg id="Layer_1" xmlns="http://www.w3.org/2000/svg" viewBox="0 0 454.22 157.14"><defs><style>.cls-1{fill:#ffe000;}</style></defs><path class="cls-1" d="M188.32.6c1.75.18,3.43.41,5.05.68,1.62.27,3.13.59,4.53.96,1.4.36,2.59.75,3.57,1.15l-2.78,17.14h-1.09c-2.26-3.78-4.4-7.15-6.44-10.1-2.04-2.95-4.15-5.51-6.33-7.7-.11,0-.34-.04-.68-.11s-.7-.11-1.06-.11c-1.75.07-3.3.65-4.67,1.75-1.36,1.09-2.51,2.61-3.44,4.56-.93,1.95-1.64,4.27-2.13,6.96-.49,2.69-.74,5.69-.74,9.01,0,3.71.41,7.01,1.23,9.91.82,2.89,1.97,5.33,3.47,7.31s3.28,3.49,5.38,4.53c2.09,1.04,4.43,1.56,7.01,1.56,1.38,0,2.76-.11,4.15-.33,1.38-.22,2.7-.54,3.96-.96,1.26-.42,2.42-.9,3.49-1.45,1.07-.55,1.99-1.15,2.76-1.8l.82.76c-2.66,4.44-6.1,7.93-10.32,10.48-4.22,2.55-9.42,3.82-15.61,3.82-4.04,0-7.73-.66-11.08-1.99-3.35-1.33-6.22-3.22-8.62-5.68-2.4-2.46-4.27-5.41-5.59-8.87-1.33-3.46-1.99-7.31-1.99-11.57,0-4.48.78-8.57,2.35-12.28,1.56-3.71,3.75-6.89,6.55-9.52,2.8-2.64,6.18-4.69,10.12-6.17,3.95-1.47,8.29-2.21,13.02-2.21,1.67,0,3.38.09,5.13.27Z"/><path class="cls-1" d="M251.94,20.03h-.87c-.65-.87-1.4-1.8-2.24-2.78-.84-.98-1.77-1.88-2.78-2.7-1.02-.82-2.15-1.5-3.38-2.05-1.24-.55-2.6-.82-4.09-.82s-2.87.31-3.9.93c-1.04.62-1.85,1.29-2.43,2.02v33.4l5.79,8.51v.76h-31.66v-.76l5.68-8.4V12.66l-5.29-6.17v-.82L231.69.33l.55.6v10.32c.62-1.42,1.61-2.8,2.97-4.15s2.89-2.55,4.58-3.6c1.69-1.05,3.46-1.9,5.29-2.54,1.84-.64,3.56-.96,5.16-.96.84,0,1.66.05,2.48.16.82.11,1.65.33,2.48.65l-3.27,19.21Z"/><path class="cls-1" d="M310.07,44.32c-1.38,2.22-2.91,4.21-4.59,5.98-1.67,1.77-3.57,3.27-5.68,4.5-2.11,1.24-4.45,2.18-7.01,2.84-2.57.65-5.43.98-8.6.98-4.22,0-8.03-.7-11.44-2.1s-6.3-3.36-8.71-5.87c-2.4-2.51-4.25-5.49-5.54-8.95-1.29-3.46-1.94-7.24-1.94-11.35,0-4.44.71-8.5,2.13-12.17,1.42-3.67,3.42-6.83,6-9.47,2.58-2.64,5.68-4.69,9.31-6.17,3.62-1.47,7.61-2.21,11.98-2.21,4.04,0,7.64.67,10.81,2.02,3.17,1.35,5.84,3.18,8.02,5.51,2.18,2.33,3.85,5.06,4.99,8.19,1.15,3.13,1.72,6.48,1.72,10.04h-34.44c-.04.18-.05.46-.05.82.14,3.42.66,6.45,1.56,9.09.89,2.64,2.1,4.86,3.63,6.66,1.53,1.8,3.37,3.16,5.51,4.07,2.15.91,4.55,1.37,7.2,1.37,1.64,0,3.16-.14,4.58-.41s2.73-.63,3.93-1.06c1.2-.44,2.28-.93,3.25-1.47.96-.55,1.79-1.07,2.48-1.58l.87.76ZM281.47,4.42c-.98.98-1.78,2.39-2.4,4.23-.62,1.84-1.09,4.08-1.42,6.71-.33,2.64-.51,5.61-.55,8.92l14.74-1.09c0-3.71-.12-6.85-.35-9.42-.24-2.57-.63-4.65-1.17-6.25-.55-1.6-1.26-2.76-2.13-3.49-.87-.73-1.95-1.09-3.22-1.09-1.35,0-2.51.49-3.49,1.47Z"/><path class="cls-1" d="M367.38,45.58l5.57,7.48v.65l-22.87,4.91-2.24-8.46c-2.22,2.51-4.82,4.55-7.81,6.11-2.98,1.56-6.15,2.35-9.5,2.35-2.07,0-3.99-.27-5.76-.82-1.77-.55-3.3-1.34-4.61-2.37-1.31-1.04-2.33-2.3-3.06-3.79-.73-1.49-1.09-3.2-1.09-5.13,0-3.02.85-5.71,2.54-8.08,1.69-2.36,3.97-4.4,6.82-6.11,2.86-1.71,6.17-3.09,9.93-4.15,3.77-1.05,7.72-1.8,11.87-2.24v-7.2c0-3.28-1.03-5.81-3.08-7.61-2.06-1.8-5.29-2.7-9.69-2.7-2.4,0-4.68.32-6.82.96-2.15.64-4.46,1.65-6.93,3.03l-.82-1.04c1.56-1.64,3.31-3.12,5.24-4.45,1.93-1.33,4.03-2.47,6.3-3.44,2.27-.96,4.69-1.71,7.26-2.24s5.27-.79,8.11-.79c4.15,0,7.56.46,10.23,1.39,2.67.93,4.78,2.25,6.33,3.96,1.55,1.71,2.61,3.77,3.19,6.17.58,2.4.87,5.08.87,8.02v25.6ZM336.63,47.05c1.11,1.49,2.9,2.24,5.38,2.24,2,0,3.73-.49,5.18-1.47v-19.65c-3.97.84-7,2.42-9.09,4.75-2.09,2.33-3.14,5.13-3.14,8.41,0,2.33.55,4.24,1.66,5.73Z"/><path class="cls-1" d="M202.6,74.78v38.37c0,2.91.63,5.08,1.88,6.5s3.03,2.13,5.32,2.13c2.11,0,4.02-.24,5.73-.71,1.71-.47,3.15-1.13,4.31-1.97l.6.82c-.98,1.27-2.17,2.49-3.55,3.66-1.38,1.17-2.93,2.18-4.64,3.06-1.71.87-3.59,1.56-5.65,2.07-2.06.51-4.23.76-6.52.76s-4.67-.33-6.8-.98c-2.13-.66-4-1.64-5.62-2.95-1.62-1.31-2.89-2.97-3.82-4.97-.93-2-1.39-4.35-1.39-7.04v-38.75h-6.82v-.55l7.97-4.37,17.9-11.3h1.09v14.03h16.21v2.18h-16.21Z"/><path class="cls-1" d="M264.93,73.31v-.71h14.85v.71l-7.04,8.68-21.18,48.25c-2.15,4.88-4.24,8.97-6.28,12.28-2.04,3.31-3.93,6-5.68,8.08-1.75,2.07-3.29,3.61-4.64,4.61-1.35,1-2.42,1.65-3.22,1.94l-7.81-14.3.49-1.15c.87-.15,2.24-.22,4.09-.22s3.85-.11,5.98-.33c2.13-.22,4.23-.64,6.3-1.26,2.07-.62,3.78-1.62,5.13-3l2.4-5.35-22-49.72-5.89-8.51v-.71h33.24v.71l-4.97,8.57,10.32,26.69,11.24-26.69-5.35-8.57Z"/><path class="cls-1" d="M343.69,71.18l.55.6v44.7l5.57,7.42v.65l-22.98,4.91-2.35-9.55c-.95.98-2.18,2.03-3.71,3.14s-3.24,2.14-5.13,3.08c-1.89.95-3.89,1.74-6,2.37-2.11.64-4.24.96-6.39.96-2,0-3.96-.32-5.87-.96-1.91-.64-3.62-1.62-5.13-2.95-1.51-1.33-2.72-3.03-3.63-5.1-.91-2.07-1.36-4.53-1.36-7.37v-29.58l-5.29-6.11v-.87l24.94-5.35.55.6v36.73c0,1.45.06,2.89.19,4.31s.44,2.69.93,3.82c.49,1.13,1.2,2.05,2.13,2.76.93.71,2.17,1.06,3.74,1.06.8,0,1.66-.08,2.57-.25s1.8-.41,2.67-.74c.87-.33,1.69-.72,2.46-1.17.76-.45,1.4-.97,1.91-1.56v-33.24l-5.29-6.11v-.87l24.94-5.35Z"/><path class="cls-1" d="M401.12,71.59c1.45.27,2.88.77,4.28,1.5,1.4.73,2.71,1.73,3.93,3,1.22,1.27,2.26,2.91,3.14,4.91.98-1.09,2.13-2.22,3.44-3.38,1.31-1.16,2.79-2.22,4.45-3.17,1.66-.95,3.47-1.73,5.43-2.35,1.96-.62,4.07-.93,6.33-.93,1.82,0,3.7.27,5.65.82,1.95.55,3.72,1.46,5.32,2.76,1.6,1.29,2.92,2.99,3.96,5.1,1.04,2.11,1.56,4.73,1.56,7.86v31.17l5.62,8.51v.76h-31.06v-.76l5.24-8.51v-31.66c0-2.4-.58-4.33-1.75-5.79-1.17-1.45-2.91-2.18-5.24-2.18-1.6,0-3.13.36-4.58,1.09-1.46.73-2.69,1.67-3.71,2.84.11.73.18,1.62.22,2.67.04,1.06.05,1.95.05,2.67v30.35l5.24,8.51v.76h-30.67v-.76l5.29-8.51v-31.6c0-2.4-.6-4.34-1.8-5.81-1.2-1.47-2.93-2.21-5.18-2.21-.65,0-1.36.08-2.1.25-.75.16-1.49.4-2.24.71s-1.46.69-2.13,1.15c-.67.46-1.26.97-1.77,1.56l.05,35.97,5.24,8.51v.76h-31.11v-.76l5.68-8.4v-35.48l-5.35-6.11v-.87l24.94-5.35.6.6-.05,7.7v.6c.95-1.05,2.09-2.12,3.44-3.19,1.35-1.07,2.83-2.03,4.45-2.87,1.62-.84,3.36-1.52,5.21-2.05,1.85-.53,3.78-.79,5.79-.79,1.35,0,2.75.14,4.2.41Z"/><rect class="cls-1" x="93.83" y="49.72" width="30.04" height="30.04" transform="translate(77.66 -58.01) rotate(45)"/><path class="cls-1" d="M64.73,0v129.47C28.98,129.47,0,100.49,0,64.74S28.98,0,64.73,0Z"/></svg>